<svg width="150" height="40" viewBox="0 0 150 40" fill="none" xmlns="http://www.w3.org/2000/svg">
<circle cx="20" cy="20" r="9" stroke="#3D47F5" stroke-width="2"/>
<path d="M46.016 16.336H44.528V20.64H46.16C46.896 20.64 47.456 20.4427 47.84 20.048C48.2347 19.6427 48.432 19.1253 48.432 18.496C48.432 17.056 47.6267 16.336 46.016 16.336ZM46.08 21.744H44.528V26H43.232V15.216H45.936C47.184 15.216 48.128 15.5093 48.768 16.096C49.4187 16.6827 49.744 17.4933 49.744 18.528C49.7227 19.2747 49.5253 19.9093 49.152 20.432C48.7787 20.9547 48.2507 21.3227 47.568 21.536L50.4 26H48.848L46.208 21.744H46.08ZM54.4136 25.024C54.9896 25.024 55.4483 24.864 55.7896 24.544C56.131 24.2133 56.3016 23.7973 56.3016 23.296V22.256H54.8936C54.211 22.256 53.699 22.3893 53.3576 22.656C53.0163 22.9227 52.8456 23.2587 52.8456 23.664C52.8456 24.0693 52.979 24.4 53.2456 24.656C53.5123 24.9013 53.9016 25.024 54.4136 25.024ZM56.3176 25.04C55.9016 25.7333 55.1443 26.08 54.0456 26.08C53.2883 26.08 52.675 25.856 52.2056 25.408C51.747 24.96 51.5176 24.3947 51.5176 23.712C51.5176 22.9333 51.811 22.3307 52.3976 21.904C52.995 21.4667 53.8056 21.248 54.8296 21.248H56.3016V20.832C56.3016 20.192 56.1576 19.712 55.8696 19.392C55.5816 19.0613 55.0963 18.896 54.4136 18.896C53.5496 18.896 52.7816 19.1253 52.1096 19.584V18.32C52.7176 17.9467 53.5176 17.76 54.5096 17.76C56.547 17.76 57.5656 18.7947 57.5656 20.864V26H56.3176V25.04ZM60.6406 22.032C60.6406 22.9067 60.854 23.616 61.2806 24.16C61.7073 24.704 62.246 24.976 62.8966 24.976C63.558 24.976 64.118 24.7307 64.5766 24.24C65.046 23.7493 65.2806 22.9653 65.2806 21.888C65.2806 20.864 65.0406 20.112 64.5606 19.632C64.0806 19.152 63.5526 18.912 62.9766 18.912C62.3046 18.912 61.7446 19.184 61.2966 19.728C60.8593 20.2613 60.6406 21.0293 60.6406 22.032ZM66.5446 26H65.2806V24.8C64.7046 25.6853 63.8726 26.128 62.7846 26.128C61.7073 26.128 60.8593 25.728 60.2406 24.928C59.6326 24.128 59.3286 23.1573 59.3286 22.016C59.3286 20.7467 59.654 19.7227 60.3046 18.944C60.9553 18.1547 61.7926 17.76 62.8166 17.76C63.8726 17.76 64.694 18.2133 65.2806 19.12V14.688H66.5446V26ZM70.2148 26H68.9508V17.888H70.2148V26ZM70.1668 14.752C70.3268 14.912 70.4068 15.1093 70.4068 15.344C70.4068 15.5787 70.3268 15.776 70.1668 15.936C70.0068 16.0853 69.8094 16.16 69.5748 16.16C69.3401 16.16 69.1428 16.0853 68.9828 15.936C68.8334 15.776 68.7588 15.5787 68.7588 15.344C68.7588 15.1093 68.8334 14.912 68.9828 14.752C69.1428 14.592 69.3401 14.512 69.5748 14.512C69.8094 14.512 70.0068 14.592 70.1668 14.752ZM79.7571 21.968C79.7571 23.1733 79.4158 24.1707 78.7331 24.96C78.0505 25.7493 77.1118 26.144 75.9171 26.144C74.7545 26.144 73.8318 25.7547 73.1491 24.976C72.4771 24.1867 72.1411 23.1947 72.1411 22C72.1411 20.7947 72.4878 19.792 73.1811 18.992C73.8851 18.1813 74.7971 17.776 75.9171 17.776C77.1438 17.776 78.0878 18.1707 78.7491 18.96C79.4211 19.7493 79.7571 20.752 79.7571 21.968ZM73.4531 21.984C73.4531 22.8267 73.6771 23.5467 74.1251 24.144C74.5731 24.7307 75.1705 25.024 75.9171 25.024C76.7278 25.024 77.3518 24.736 77.7891 24.16C78.2265 23.5733 78.4451 22.848 78.4451 21.984C78.4451 21.088 78.2371 20.352 77.8211 19.776C77.4051 19.1893 76.7705 18.896 75.9171 18.896C75.1491 18.896 74.5465 19.1947 74.1091 19.792C73.6718 20.3893 73.4531 21.12 73.4531 21.984ZM86.8238 26H85.5598V14.688H86.8238V19.104C87.4104 18.208 88.2318 17.76 89.2878 17.76C90.3118 17.76 91.1491 18.1547 91.7998 18.944C92.4504 19.7227 92.7758 20.7467 92.7758 22.016C92.7758 23.1573 92.4664 24.128 91.8478 24.928C91.2398 25.728 90.3971 26.128 89.3198 26.128C88.2318 26.128 87.3998 25.6853 86.8238 24.8V26ZM86.8238 21.888C86.8238 22.9653 87.0531 23.7493 87.5118 24.24C87.9811 24.7307 88.5464 24.976 89.2078 24.976C89.8584 24.976 90.3971 24.704 90.8238 24.16C91.2504 23.616 91.4638 22.9067 91.4638 22.032C91.4638 21.0293 91.2398 20.2613 90.7918 19.728C90.3544 19.184 89.7998 18.912 89.1278 18.912C88.5518 18.912 88.0238 19.152 87.5438 19.632C87.0638 20.112 86.8238 20.864 86.8238 21.888ZM100.941 26H99.6768V24.592C99.2501 25.5947 98.4021 26.096 97.1328 26.096C96.3328 26.096 95.6981 25.8613 95.2288 25.392C94.7701 24.912 94.5408 24.272 94.5408 23.472V17.888H95.8048V23.152C95.8048 23.7387 95.9541 24.1867 96.2528 24.496C96.5514 24.8053 96.9568 24.96 97.4688 24.96C98.1408 24.96 98.6741 24.7253 99.0688 24.256C99.4741 23.7867 99.6768 23.152 99.6768 22.352V17.888H100.941V26ZM107.341 25.792C106.989 25.984 106.595 26.08 106.157 26.08C104.557 26.08 103.757 25.264 103.757 23.632V18.912H102.461V17.888H103.757V15.872H105.021V17.888H107.261V18.912H105.021V23.664C105.021 24.528 105.427 24.96 106.237 24.96C106.653 24.96 107.021 24.8373 107.341 24.592V25.792ZM113.248 25.792C112.896 25.984 112.501 26.08 112.064 26.08C110.464 26.08 109.664 25.264 109.664 23.632V18.912H108.368V17.888H109.664V15.872H110.928V17.888H113.168V18.912H110.928V23.664C110.928 24.528 111.333 24.96 112.144 24.96C112.56 24.96 112.928 24.8373 113.248 24.592V25.792ZM122.226 21.968C122.226 23.1733 121.885 24.1707 121.202 24.96C120.519 25.7493 119.581 26.144 118.386 26.144C117.223 26.144 116.301 25.7547 115.618 24.976C114.946 24.1867 114.61 23.1947 114.61 22C114.61 20.7947 114.957 19.792 115.65 18.992C116.354 18.1813 117.266 17.776 118.386 17.776C119.613 17.776 120.557 18.1707 121.218 18.96C121.89 19.7493 122.226 20.752 122.226 21.968ZM115.922 21.984C115.922 22.8267 116.146 23.5467 116.594 24.144C117.042 24.7307 117.639 25.024 118.386 25.024C119.197 25.024 119.821 24.736 120.258 24.16C120.695 23.5733 120.914 22.848 120.914 21.984C120.914 21.088 120.706 20.352 120.29 19.776C119.874 19.1893 119.239 18.896 118.386 18.896C117.618 18.896 117.015 19.1947 116.578 19.792C116.141 20.3893 115.922 21.12 115.922 21.984ZM130.474 26H129.21V20.752C129.21 20.1547 129.056 19.7013 128.746 19.392C128.448 19.072 128.053 18.912 127.562 18.912C126.954 18.912 126.426 19.1467 125.978 19.616C125.541 20.0853 125.322 20.736 125.322 21.568V26H124.074V17.888H125.322V19.296C125.802 18.2827 126.656 17.776 127.882 17.776C128.672 17.776 129.301 18.016 129.77 18.496C130.24 18.976 130.474 19.616 130.474 20.416V26Z" fill="#000018" fill-opacity="0.84"/>
</svg>
