<svg width="122" height="28" viewBox="0 0 122 28" fill="none" xmlns="http://www.w3.org/2000/svg">
<g clip-path="url(#clip0)">
<path d="M29.8836 9.85261C27.9363 9.85261 26.3016 10.5832 25.2346 11.9209V4.29163H22.9456V23.1138H25.2346V21.0429C26.3016 22.3648 27.9363 23.0849 29.8836 23.0849C33.5077 23.0849 36.2436 20.2282 36.2436 16.4438C36.2436 12.683 33.5051 9.85261 29.8836 9.85261ZM29.676 20.9746C27.1689 20.9746 25.2057 18.9851 25.2057 16.4412C25.2057 13.8893 27.1268 11.9629 29.676 11.9629C32.1201 11.9629 33.9624 13.8893 33.9624 16.4412C33.9624 19.0272 32.1228 20.9746 29.676 20.9746Z" fill="#000DF1"/>
<path d="M49.292 9.85266V17.637C49.292 20.8932 46.9898 23.0823 43.5628 23.0823C40.1358 23.0823 37.8336 20.9221 37.8336 17.7132V9.85266H40.1121V17.3374C40.1121 19.5397 41.4341 20.9063 43.5602 20.9063C45.6968 20.9063 47.0213 19.5397 47.0213 17.3374V9.85529L49.292 9.85266Z" fill="#000DF1"/>
<path d="M72.0958 15.0799V23.1112H69.8015V15.5871C69.8015 13.3348 68.6004 12.0445 66.5085 12.0445C64.4481 12.0445 62.9527 13.5188 62.9527 15.5477V23.1139L60.6637 23.1086V15.5871C60.6637 13.3664 59.46 12.0445 57.4469 12.0445C55.3235 12.0445 53.8412 13.5136 53.8412 15.6239V23.1139L51.5522 23.1086V9.85792H53.8412V11.6949C54.5482 10.7488 55.8832 9.85266 57.7781 9.85266C59.8832 9.85266 61.481 10.7304 62.3115 12.3336C63.2129 10.7751 64.8817 9.85266 66.8318 9.85266C70.0249 9.85266 72.0958 11.9052 72.0958 15.0799Z" fill="#000DF1"/>
<path d="M84.6342 11.9131C83.5199 10.5833 81.8432 9.85266 79.9142 9.85266C76.1561 9.85266 73.4282 12.6332 73.4282 16.4675C73.4282 20.3649 76.3716 23.0823 80.5844 23.0823C82.3399 23.0823 83.8852 22.6802 85.3096 21.8471L85.3806 21.8025L84.9733 19.6895L84.8313 19.7657C83.3491 20.5752 82.0903 20.9089 80.4898 20.9089C78.0141 20.9089 76.1981 19.5161 75.8276 17.3453H85.9062L85.9246 17.2454C86.2742 15.2455 85.8037 13.3033 84.6342 11.9131ZM75.8749 15.411C76.1219 13.4058 77.7881 12.0156 79.9773 12.0156C82.1218 12.0156 83.6145 13.3401 83.8064 15.411H75.8749Z" fill="#000DF1"/>
<path d="M95.2542 10.4702L94.4447 12.3361L94.4106 12.323C94.0558 12.1889 93.5959 12.0181 92.8258 12.0181C91.3068 12.0181 89.6853 13.0089 89.6853 15.7789V23.1138H87.3831V9.85522H89.6853V11.6108C90.3923 10.4728 91.496 9.89202 92.8837 9.88413C93.9559 9.87625 95.2542 10.4702 95.2542 10.4702Z" fill="#000DF1"/>
<path d="M105.819 9.84741V11.9052C104.757 10.5754 103.123 9.85004 101.175 9.85004C97.5485 9.85004 94.8153 12.6752 94.8153 16.4255C94.8153 20.2204 97.5459 23.0797 101.175 23.0797C103.115 23.0797 104.755 22.3491 105.819 21.0114V23.1086H108.113V9.84741H105.819ZM101.38 20.9694C98.9335 20.9694 97.0886 19.0167 97.0886 16.4228C97.0886 13.8789 98.9335 11.9577 101.38 11.9577C103.924 11.9577 105.845 13.8789 105.845 16.4228C105.845 19.0167 103.924 20.9694 101.38 20.9694Z" fill="#000DF1"/>
<path d="M122 15.1246V23.1218H119.724V15.6318C119.724 13.2902 118.552 12.0523 116.339 12.0523C114.189 12.0523 112.631 13.574 112.631 15.6712V23.1191H110.342V9.85791H112.644V11.7212C113.364 10.7725 114.731 9.86317 116.662 9.86317C120.008 9.86317 122 11.829 122 15.1246Z" fill="#000DF1"/>
<path d="M17.2454 17.9812C17.0693 18.2046 16.8722 18.407 16.662 18.5962C15.1693 19.9496 13.6739 21.2978 12.1785 22.6487C10.6963 23.9837 9.20881 25.3214 7.72658 26.6617C7.26141 27.0822 6.7358 27.3555 6.19442 27.4764C6.77522 27.2925 7.31397 26.9245 7.74497 26.3805C8.91709 24.8983 10.0866 23.4108 11.2613 21.9286C12.444 20.4332 13.6266 18.9352 14.804 17.4346C14.9695 17.2243 15.122 17.0036 15.2481 16.7723C16.641 14.1916 16.0365 11.214 13.758 9.3822C10.8487 7.04848 7.94208 4.71739 5.03544 2.38629C4.87513 2.25752 4.7043 2.13926 4.5256 2.03676C4.2917 1.90273 4.04203 1.80286 3.78711 1.74505C3.98947 1.35609 4.27593 0.996049 4.6386 0.693821C5.76341 -0.233886 7.53736 -0.233886 8.65691 0.701705C8.82248 0.840993 8.98279 0.99342 9.12734 1.15899C11.7528 4.10505 14.3677 7.05899 16.9879 10.0103C19.0456 12.3309 19.1481 15.545 17.2454 17.9812Z" fill="#00DCD4"/>
<path d="M10.1102 15.7605C8.02618 17.6422 5.94475 19.5187 3.86332 21.4003C5.32453 19.5449 6.78836 17.6921 8.25219 15.8367C9.12208 14.7382 8.97228 13.4268 7.88426 12.5543C5.65303 10.7619 3.42444 8.97223 1.19321 7.17989C-0.223317 6.04719 -0.402026 4.04461 0.780603 2.67276C1.51121 1.83178 2.72011 1.48488 3.78711 1.74505C3.71878 1.8712 3.66096 2.00523 3.61628 2.13401C3.59526 2.1892 3.57686 2.2365 3.56372 2.29169C3.5427 2.35476 3.5243 2.41784 3.51116 2.47828C3.49802 2.5361 3.48488 2.59129 3.47437 2.64911C3.2904 3.61624 3.55058 4.65169 4.27067 5.46639C6.28114 7.73178 8.29687 9.9998 10.3073 12.2652C11.2876 13.3742 11.2061 14.7671 10.1102 15.7605Z" fill="#EB0064"/>
<path d="M15.248 16.7723C15.1218 17.0062 14.9694 17.2243 14.8038 17.4345C13.6264 18.9352 12.4438 20.4305 11.2612 21.9259C10.0891 23.4081 8.91958 24.8956 7.74484 26.3778C7.31383 26.9245 6.77771 27.2924 6.19428 27.4738C6.1864 27.479 6.17325 27.479 6.16274 27.4843C5.99717 27.5184 5.82635 27.5473 5.6529 27.5552C5.40586 27.5684 5.15619 27.55 4.9039 27.5053C4.33887 27.4028 3.79223 27.1374 3.30604 26.7221C2.61748 26.1282 2.2627 25.2031 2.2627 24.2807C2.2627 24.1913 2.26795 24.0967 2.27584 24.0073C2.28898 23.9232 2.30737 23.8418 2.32577 23.7603C2.35205 23.6604 2.37833 23.5684 2.41512 23.4738C2.43878 23.416 2.4598 23.3582 2.48345 23.303C2.48871 23.2951 2.49134 23.282 2.49659 23.2715C2.53339 23.2005 2.56755 23.1269 2.6096 23.0612C2.72261 22.8694 2.84613 22.6802 2.98541 22.5067C3.27713 22.1362 3.56884 21.7735 3.85793 21.4003L3.86319 21.395C5.94461 19.5133 8.02867 17.6369 10.1101 15.7552C11.2086 14.7618 11.2875 13.3689 10.3072 12.2625C8.29673 9.99712 6.28101 7.7291 4.27054 5.46371C3.55045 4.64901 3.29027 3.61356 3.47423 2.64643C3.48212 2.58861 3.49526 2.53342 3.51103 2.4756C3.52417 2.41253 3.54256 2.34946 3.56359 2.28638C3.57673 2.23382 3.59512 2.18389 3.61615 2.1287C3.66083 1.99992 3.71864 1.86589 3.78697 1.73975C4.04189 1.79756 4.29156 1.89743 4.52546 2.03146C4.70417 2.13396 4.87499 2.25222 5.0353 2.38099C7.94194 4.70946 10.8486 7.04318 13.7552 9.3769C16.0364 11.2165 16.6408 14.1941 15.248 16.7723Z" fill="#000DF1"/>
</g>
<defs>
<clipPath id="clip0">
<path d="M0 0H122V27.5631H0V0Z" fill="white"/>
</clipPath>
</defs>
</svg>
