<svg width="566" height="400" viewBox="0 0 566 400" fill="none" xmlns="http://www.w3.org/2000/svg">
<path d="M209.932 382.64C256.718 382.64 294.646 375.455 294.646 366.592C294.646 357.729 256.718 350.544 209.932 350.544C163.146 350.544 125.218 357.729 125.218 366.592C125.218 375.455 163.146 382.64 209.932 382.64Z" fill="#F5F5F5"/>
<path d="M321.739 63.5894C290.605 62.5118 260.953 52.4578 232.638 41.4609C204.323 30.4639 176.278 18.2836 145.889 12.458C126.344 8.71062 103.989 8.17664 88.2446 18.6444C73.0865 28.7466 68.1894 46.1367 65.558 62.2857C63.576 74.4372 62.4119 87.2285 67.8382 98.6054C71.6097 106.504 78.2963 113.143 82.9241 120.71C99.025 147.033 87.6432 179.495 70.2002 205.198C62.0222 217.253 52.5214 228.769 46.2051 241.589C39.8889 254.41 36.9689 269.149 42.4962 282.263C47.9706 295.251 61.0216 304.988 75.1599 311.843C103.874 325.769 137.697 329.752 170.702 332.013C243.741 337.007 317.164 334.847 390.395 332.677C417.498 331.879 444.716 331.066 471.376 326.876C486.183 324.547 501.466 320.853 512.218 311.934C525.861 300.615 529.242 281.45 520.097 267.259C504.761 243.446 462.371 237.534 451.639 211.985C445.741 197.919 451.797 182.256 460.374 169.215C478.77 141.232 509.601 116.683 511.222 84.7029C512.338 62.7379 497.517 40.7393 474.599 30.3437C450.58 19.4478 417.267 20.8188 399.555 38.8535C381.299 57.403 349.231 64.5467 321.739 63.5894Z" fill="#EDF1F7"/>
<path d="M262.463 206.631C257.653 213.515 240.359 209.869 240.359 209.869L226.957 197.328L225.153 195.63L228.179 189.203C228.179 189.203 229.141 189.467 230.791 189.939C239.455 192.455 266.524 200.844 262.463 206.631Z" fill="#EFB7B9"/>
<path opacity="0.1" d="M230.781 189.939C230.189 191.998 228.568 195.081 226.957 197.328L225.153 195.63L228.179 189.203C228.179 189.203 229.15 189.467 230.781 189.939Z" fill="black"/>
<path d="M184.816 117.463C184.816 117.463 172.463 122.942 173.069 136.397C173.505 145.066 174.45 153.701 175.898 162.259C175.898 162.259 173.372 182.506 183.888 187.726C194.404 192.945 204.135 197.236 204.135 197.236C204.135 197.236 220.588 199.007 222.632 199.738C224.677 200.469 231.065 189.289 229.886 187.548C228.708 185.806 213.607 182.155 211.683 179.25C209.759 176.344 205.309 174.55 205.309 174.55C205.309 174.55 200.715 171.769 200.403 169.258C200.09 166.747 201.302 164.876 201.61 163.774C201.918 162.672 202.697 152.036 202.697 152.036C202.697 152.036 207.883 114.177 184.816 117.463Z" fill="#DCE6F2"/>
<path opacity="0.1" d="M192.97 161.706C192.97 161.706 176.023 164.544 177.663 170.475C177.663 170.475 183.816 164.072 192.97 161.706Z" fill="black"/>
<path opacity="0.1" d="M193.1 164.106C193.1 164.106 183.782 171.711 185.605 172.101C187.428 172.491 193.1 164.106 193.1 164.106Z" fill="black"/>
<path opacity="0.1" d="M197.578 166.757C197.578 166.757 195.082 171.87 196.616 171.524C198.151 171.178 197.578 166.757 197.578 166.757Z" fill="black"/>
<path d="M231.407 190.483L230.377 190.189C230.671 189.227 230.753 188.448 230.512 188.087C229.333 186.345 214.243 182.699 212.323 179.789C210.404 176.878 205.949 175.089 205.949 175.089C205.949 175.089 201.355 172.308 201.043 169.797C200.73 167.286 201.942 165.415 202.25 164.313C202.558 163.212 203.337 152.571 203.337 152.571C203.337 152.571 208.509 114.716 185.442 118.002C185.442 118.002 173.088 123.486 173.69 136.941C174.126 145.61 175.072 154.245 176.523 162.803C176.523 162.803 173.998 183.05 184.513 188.27C195.029 193.489 204.761 197.78 204.761 197.78C204.761 197.78 221.208 199.546 223.258 200.282C224.032 200.561 225.432 199.122 226.803 197.145L227.582 197.872L240.985 210.408C240.985 210.408 258.278 214.059 263.089 207.175C267.154 201.383 240.09 192.994 231.407 190.483Z" fill="#000018" fill-opacity="0.16"/>
<path d="M177.706 66.962C177.236 67.0541 176.785 67.2283 176.374 67.4767C175.893 67.876 175.893 68.5591 175.773 69.1556C175.631 69.9854 175.302 70.7719 174.811 71.4551C175.358 71.4952 175.907 71.4045 176.412 71.1905C176.33 71.8489 176.169 72.495 175.931 73.1147C176.231 73.1223 176.527 73.0433 176.783 72.8872C177.039 72.731 177.244 72.5044 177.375 72.2344C177.629 71.6923 177.83 71.1268 177.976 70.5459C178.021 70.3721 178.099 70.2088 178.207 70.0648C178.649 69.5405 179.472 69.7762 180.155 69.8435C180.724 69.8915 181.295 69.7865 181.809 69.5395C182.323 69.2925 182.762 68.9125 183.08 68.4388C183.806 67.3372 183.85 64.5183 182.118 64.22C180.309 63.9217 179.183 66.4136 177.706 66.962Z" fill="black"/>
<g opacity="0.1">
<path opacity="0.1" d="M176.325 68.0683C176.369 67.8326 176.398 67.5873 176.451 67.3516C175.994 67.7508 175.97 68.4291 175.849 69.0304C175.789 69.3774 175.694 69.7174 175.565 70.0455C175.944 69.4418 176.202 68.7703 176.325 68.0683Z" fill="black"/>
<path opacity="0.1" d="M176.479 72.0419C176.719 71.4229 176.881 70.7766 176.96 70.1177C176.479 70.3204 175.957 70.4109 175.436 70.3823C175.284 70.7206 175.098 71.0429 174.882 71.3444C175.428 71.3866 175.975 71.2975 176.479 71.0846C176.4 71.7435 176.238 72.3898 175.998 73.0088C176.298 73.0158 176.593 72.9366 176.849 72.7805C177.105 72.6244 177.311 72.3981 177.442 72.1285C177.561 71.9098 177.658 71.6793 177.73 71.4406C177.589 71.6378 177.4 71.7963 177.182 71.9014C176.963 72.0065 176.722 72.0548 176.479 72.0419Z" fill="black"/>
<path opacity="0.1" d="M180.703 68.7709C180.02 68.7035 179.192 68.4678 178.75 68.9922C178.645 69.1373 178.566 69.3002 178.519 69.4732C178.476 69.5983 178.437 69.7282 178.404 69.8581C178.861 69.4973 179.601 69.6897 180.222 69.7522C180.79 69.7986 181.361 69.693 181.875 69.4461C182.389 69.1993 182.828 68.8201 183.147 68.3475C183.293 68.114 183.401 67.8592 183.469 67.5923C183.14 68 182.715 68.3207 182.233 68.5262C181.751 68.7317 181.225 68.8157 180.703 68.7709Z" fill="black"/>
</g>
<path d="M192.186 106.692L199.522 115.515L198.565 124.419L189.699 110.541L192.186 106.692Z" fill="#DCE6F2"/>
<path d="M199.518 115.515L198.618 123.89L198.56 124.419L190.56 111.893L189.699 110.541L189.949 110.151L192.181 106.692L192.677 107.289L199.518 115.515Z" fill="#000018" fill-opacity="0.16"/>
<path d="M203.327 94.7476C200.845 95.4596 198.474 97.9034 196.41 100.871C195.015 102.919 193.768 105.064 192.677 107.289C191.999 108.645 191.402 109.949 190.907 111.084L190.56 111.892C189.723 113.87 189.257 115.192 189.257 115.192C189.257 115.192 170.255 100.905 173.262 99.943C174.272 99.6207 175.599 97.456 176.913 94.7284L177.076 94.382C177.909 92.631 178.726 90.6779 179.453 88.8403C180.939 85.064 182.041 81.7832 182.041 81.7832C182.041 81.7832 210.904 92.5829 203.327 94.7476Z" fill="#EFB7B9"/>
<path d="M214.695 80.9795C214.695 80.9795 219.082 88.9169 224.975 87.8345C230.868 86.7522 228.443 83.5724 228.443 83.5724L214.695 80.9795Z" fill="#444053"/>
<path d="M206.195 355.734C202.308 357.509 193.519 355.734 193.519 355.734L189.815 355.503C185.004 355.195 176.951 354.676 174.103 354.445C169.947 354.103 170.967 352.401 170.967 352.401V342.111L191.133 337.002C191.133 337.002 199.104 339.73 201.288 342.111C203.361 344.381 204.574 342.635 208.273 343.289C208.456 343.323 208.648 343.362 208.85 343.41C212.362 344.213 214.267 344.53 215.392 347.441C215.619 348.052 215.8 348.679 215.936 349.317C216.975 354.002 210.077 353.969 206.195 355.734Z" fill="#65617D"/>
<path opacity="0.1" d="M215.392 347.441C214.67 347.893 213.91 348.282 213.122 348.605C210.476 349.813 207.96 351.285 205.285 352.425C202.611 353.565 199.729 354.378 196.833 354.161C195.318 354.051 193.769 353.68 192.321 354.113C191.426 354.459 190.582 354.927 189.815 355.504C185.004 355.196 176.951 354.676 174.103 354.445C169.947 354.104 170.967 352.401 170.967 352.401V351.198C171.116 351.198 171.284 351.155 171.477 351.14C172.472 351.124 173.464 351.272 174.411 351.578C176.499 352.146 178.577 352.704 180.665 353.262C180.837 352.614 181.139 352.008 181.552 351.48C181.966 350.952 182.482 350.514 183.07 350.193C184.262 349.56 185.599 349.253 186.948 349.303C190.185 349.346 193.249 350.881 196.482 351.035C197.386 351.118 198.296 350.965 199.123 350.592C199.566 350.371 199.955 350.048 200.388 349.803C201.081 349.468 201.813 349.221 202.567 349.067C204.687 348.539 206.769 347.868 208.797 347.056C209.374 346.83 210.048 346.421 209.971 345.805C209.87 344.988 208.585 344.891 208.249 344.141C208.189 344.006 208.162 343.858 208.169 343.711C208.175 343.563 208.216 343.419 208.287 343.29C208.47 343.323 208.662 343.362 208.865 343.41C212.362 344.213 214.267 344.531 215.392 347.441Z" fill="black"/>
<path d="M202.086 378.248C197.516 380.336 187.174 378.248 187.174 378.248L182.82 377.993C177.182 377.632 167.686 377.031 164.333 376.747C159.441 376.343 160.643 374.342 160.643 374.342V362.214L184.374 356.201C184.374 356.201 193.754 359.41 196.323 362.214C198.762 364.884 200.172 362.83 204.544 363.6C204.761 363.638 204.987 363.686 205.223 363.739C209.355 364.701 211.597 365.062 212.92 368.487C213.187 369.206 213.401 369.944 213.559 370.695C214.752 376.208 206.656 376.165 202.086 378.248Z" fill="#65617D"/>
<path opacity="0.1" d="M212.91 368.487C212.06 369.018 211.167 369.477 210.24 369.858C207.128 371.277 204.164 373.009 201.018 374.351C197.872 375.693 194.481 376.646 191.07 376.396C189.29 376.266 187.467 375.818 185.778 376.338C184.72 376.75 183.725 377.307 182.82 377.993C177.182 377.632 167.686 377.031 164.333 376.747C159.441 376.343 160.643 374.342 160.643 374.342V372.927C160.843 372.895 161.043 372.872 161.245 372.86C162.417 372.839 163.584 373.013 164.699 373.375L172.054 375.357C172.259 374.592 172.618 373.878 173.108 373.256C173.598 372.635 174.21 372.121 174.907 371.744C176.309 370.997 177.884 370.635 179.472 370.695C183.282 370.748 186.885 372.552 190.69 372.735C191.75 372.832 192.817 372.654 193.788 372.22C194.312 371.956 194.75 371.576 195.279 371.292C196.093 370.893 196.955 370.602 197.843 370.426C200.324 369.8 202.761 369.009 205.136 368.059C205.814 367.79 206.608 367.309 206.517 366.587C206.397 365.625 204.886 365.51 204.487 364.624C204.419 364.465 204.389 364.292 204.397 364.119C204.405 363.945 204.453 363.776 204.535 363.624C204.751 363.662 204.977 363.71 205.213 363.763C209.345 364.687 211.587 365.062 212.91 368.487Z" fill="black"/>
<path d="M191.744 295.03L190.459 325.255C190.459 325.255 188.535 331.427 189.579 333.192C190.623 334.958 192.383 336.718 191.744 337.762C191.104 338.806 183.407 350.092 180.92 345.762C178.433 341.433 175.979 322.671 175.979 322.671L178.274 299.499L191.744 295.03Z" fill="#444053"/>
<path d="M197.314 219.726L200.884 224.498V266.003C200.884 266.003 201.928 277.067 200.884 279.352C199.84 281.637 194.548 286.207 194.548 286.207L190.099 263.357L191.061 239.184L197.314 219.726Z" fill="#444053"/>
<path d="M191.744 295.03L190.459 325.255C190.459 325.255 188.535 331.427 189.579 333.192C190.623 334.958 192.383 336.718 191.744 337.762C191.104 338.806 183.407 350.092 180.92 345.762C178.433 341.433 175.979 322.671 175.979 322.671L178.274 299.499L191.744 295.03Z" fill="#000018"/>
<path d="M197.314 219.726L200.884 224.498V266.003C200.884 266.003 201.928 277.067 200.884 279.352C199.84 281.637 194.548 286.207 194.548 286.207L190.099 263.357L191.061 239.184L197.314 219.726Z" fill="#000018"/>
<path d="M200.883 202.023V224.474L196.876 241.95C196.876 241.95 195.592 284.125 196.713 289.253C197.834 294.381 192.864 299.196 192.864 299.196C192.864 299.196 189.978 299.518 189.978 301.76C189.978 304.002 185.167 310.419 185.167 310.419L185.326 322.926C185.326 322.926 187.414 346.339 184.205 350.828C180.997 355.316 185.326 355.961 185.326 355.961C181.319 369.108 162.077 366.063 160.34 364.62C158.603 363.176 160.34 334.794 160.34 334.794C160.34 334.794 164.641 291.499 168.008 289.575C171.376 287.651 168.172 285.245 169.293 282.359C170.413 279.473 168.172 271.617 168.172 271.617C168.172 271.617 167.21 262.314 164.804 257.825C162.399 253.337 162.717 240.988 162.717 240.988C162.717 240.988 155.982 232.007 153.981 228.481C151.979 224.955 150.69 215.815 151.171 208.916C151.498 204.255 153.947 197.467 155.501 193.561C156.246 191.69 156.785 190.478 156.785 190.478L157.242 190.598L183.517 197.477L200.883 202.023Z" fill="#252539"/>
<path opacity="0.1" d="M203.327 94.7476C200.845 95.4596 198.473 97.9033 196.41 100.871H195.871C192.846 100.874 189.874 100.077 187.256 98.5626C184.637 97.0481 182.465 94.8692 180.958 92.2461C180.329 91.1592 179.822 90.0056 179.448 88.8066C180.934 85.0303 182.036 81.7495 182.036 81.7495C182.036 81.7495 210.904 92.5829 203.327 94.7476Z" fill="#000018" fill-opacity="0.16"/>
<path d="M213.069 82.7214C213.073 85.3536 212.473 87.9516 211.315 90.3153C210.157 92.679 208.472 94.7454 206.39 96.3553C204.307 97.9652 201.883 99.0756 199.304 99.6009C196.725 100.126 194.059 100.053 191.513 99.3856C188.967 98.7186 186.608 97.4761 184.617 95.7536C182.627 94.0312 181.058 91.8749 180.033 89.4508C179.007 87.0268 178.552 84.3996 178.701 81.7717C178.851 79.1438 179.602 76.5853 180.896 74.2933C181.417 73.3621 182.026 72.4826 182.714 71.6668C183.849 70.3153 185.182 69.1442 186.668 68.1936C189.179 66.598 192.061 65.681 195.032 65.5323C198.004 65.3835 200.963 66.0081 203.62 67.3449C206.278 68.6817 208.543 70.6851 210.195 73.1593C211.847 75.6335 212.829 78.4939 213.045 81.4611C213.054 81.8844 213.069 82.3029 213.069 82.7214Z" fill="#EFB7B9"/>
<path opacity="0.1" d="M198.618 123.89L198.56 124.419L190.56 111.911C189.723 113.889 189.257 115.212 189.257 115.212C189.257 115.212 170.255 100.905 173.262 99.9428C174.272 99.6205 175.599 97.4558 176.913 94.7282L177.076 94.3818C178.471 98.5382 186.577 106.846 189.949 110.175C190.339 110.56 190.661 110.877 190.911 111.108L191.426 111.589L191.696 111.859C192.922 113.124 198.098 118.704 198.618 123.89Z" fill="#000018" fill-opacity="0.16"/>
<path d="M204.597 166.329L203.722 194.504L203.568 199.521C203.568 199.521 193.196 198.559 183.517 197.501C175.724 196.649 168.379 195.731 167.248 195.192C165.805 194.514 162.712 193.989 160.273 193.657C158.387 193.402 156.905 193.268 156.905 193.268C156.905 193.268 156.352 193.431 155.501 193.585C153.644 193.922 150.382 194.196 148.482 192.546C146.053 190.434 152.436 182.761 154.029 180.919L154.38 180.52L153.779 174.964L152.215 160.556C152.215 160.556 151.253 152.258 149.81 147.808C149.424 146.543 149.146 145.247 148.978 143.935C148.441 139.871 148.716 135.741 149.786 131.784C150.243 130.102 150.533 128.38 150.652 126.642C150.892 122.192 164.482 104.994 167.849 103.431C169.364 102.724 170.583 101.509 171.294 99.9959C171.528 99.5202 171.704 99.0178 171.818 98.4998C173.261 92.2461 176.913 94.7283 176.913 94.7283C177.793 99.6206 191.421 112.571 191.421 112.571L191.691 112.84C193.042 114.225 199.065 120.729 198.637 126.281C198.551 128.347 198.86 130.41 199.546 132.361C202.318 141.09 203.912 150.15 204.285 159.3L204.597 166.329Z" fill="#F5F5F5"/>
<path d="M185.288 132.871C185.288 132.871 181.921 141.049 179.395 142.372C176.87 143.695 186.491 145.162 185.288 132.871Z" fill="#000018" fill-opacity="0.16"/>
<path d="M187.814 148.145C187.814 148.145 180.117 149.107 180.117 150.55C180.117 151.993 187.814 148.145 187.814 148.145Z" fill="#000018" fill-opacity="0.16"/>
<path d="M195.871 157.525C195.871 157.525 184.686 181.338 181.559 182.059C178.433 182.781 195.871 157.525 195.871 157.525Z" fill="#000018" fill-opacity="0.16"/>
<path opacity="0.1" d="M191.209 113.778L181.959 117.8L170.793 100.934C171.028 100.458 171.204 99.9558 171.318 99.4378C172.761 93.1841 176.412 95.6663 176.412 95.6663C177.293 100.559 190.921 113.509 190.921 113.509L191.209 113.778Z" fill="#C3C2C8"/>
<path d="M191.691 112.816L182.44 116.837L171.275 99.9715C171.51 99.4958 171.686 98.9934 171.799 98.4754C173.242 92.2217 176.894 94.7039 176.894 94.7039C177.774 99.5962 191.402 112.546 191.402 112.546L191.691 112.816Z" fill="#C0D8E9"/>
<path d="M203.568 199.521C203.568 199.521 193.196 198.559 183.517 197.501L200.884 202.047V207.338C200.123 208.026 199.464 208.382 199.036 208.2C197.035 207.358 180.703 204.712 180.703 204.712C180.703 204.712 171.217 199.901 160.98 194.129C160.732 193.991 160.491 193.84 160.258 193.677C159.065 192.866 158.036 191.836 157.228 190.641C155.337 187.904 154.414 184.387 154.014 180.938C153.79 178.961 153.706 176.971 153.764 174.983C153.814 172.728 154.02 170.479 154.38 168.253C153.39 159.63 152.908 150.956 152.937 142.276C153.057 128.806 165.685 123.996 165.685 123.996C188.896 121.951 181.699 159.473 181.699 159.473C181.699 159.473 180.357 170.057 179.991 171.139C179.626 172.221 178.312 174.025 178.49 176.551C178.668 179.076 183.104 182.098 183.104 182.098C183.104 182.098 187.433 184.128 189.218 187.134C190.517 189.352 198.955 192.358 203.722 194.504L203.568 199.521Z" fill="#000018" fill-opacity="0.16"/>
<path opacity="0.1" d="M211.342 72.0416C211.351 72.834 211.186 73.6187 210.861 74.3411C210.614 74.9305 210.328 75.5027 210.004 76.0536C209.498 77.0671 208.779 77.9596 207.897 78.6706C206.786 79.4643 205.381 79.6856 204.049 80.0079C202.716 80.3302 201.331 80.8449 200.571 81.9802C200.159 82.71 199.883 83.5088 199.758 84.3374C199.63 85.1653 199.3 85.9487 198.796 86.6176C198.533 86.9442 198.17 87.1743 197.762 87.2719C197.355 87.3694 196.926 87.3288 196.544 87.1564C196.142 86.8851 195.837 86.4924 195.674 86.0355C195.125 84.7992 194.986 83.4282 194.764 82.0957C194.543 80.7631 194.231 79.3921 193.413 78.3194C192.595 77.2466 191.147 76.5395 189.863 76.958C189.433 77.1235 189.041 77.3741 188.71 77.6949C188.379 78.0156 188.117 78.3998 187.938 78.8245C187.583 79.6747 187.339 80.5672 187.212 81.4799C186.615 84.7447 185.911 87.9902 185.1 91.2165C185.075 91.3487 185.021 91.4737 184.941 91.5821C184.813 91.7096 184.641 91.782 184.46 91.7841C183.383 91.9284 182.348 91.1732 181.261 91.255C181.149 91.2624 181.038 91.2801 180.929 91.3079C179.172 88.253 178.395 84.7316 178.706 81.2208C179.017 77.71 180.399 74.3796 182.666 71.6808L182.753 71.6568C183.476 71.4 184.133 70.986 184.677 70.4445C185.371 69.7496 186.014 69.0052 186.601 68.2172L186.986 67.7362C188.092 66.4041 189.351 65.2076 190.738 64.1715C191.117 63.8614 191.551 63.6263 192.018 63.4788C192.417 63.401 192.826 63.388 193.23 63.4403C194.891 63.6398 196.566 63.7025 198.238 63.6279C199.402 63.4449 200.576 63.326 201.754 63.272C204.799 63.3586 207.397 65.5089 209.321 67.8661C210.356 69.0735 211.279 70.4637 211.342 72.0416Z" fill="black"/>
<path d="M178.649 74.7503C177.981 75.8471 176.773 76.5927 176.321 77.7953C175.657 79.5416 176.778 81.716 175.749 83.2746C175.407 83.7989 174.844 84.1886 174.652 84.7899C174.325 85.8049 175.219 86.8873 174.989 87.9312C174.758 88.9751 173.382 89.8554 173.747 90.8752C173.964 91.32 174.342 91.6645 174.806 91.8373C175.535 92.2555 176.374 92.4417 177.211 92.3713C178.524 92.1548 179.501 90.8656 180.833 90.7694C181.916 90.6924 182.95 91.4429 184.028 91.3034C184.208 91.2971 184.38 91.2233 184.509 91.0965C184.59 90.9893 184.645 90.8639 184.667 90.7309C185.476 87.5079 186.181 84.2623 186.784 80.9944C186.907 80.0814 187.15 79.1885 187.506 78.3389C187.686 77.9151 187.949 77.5317 188.279 77.2111C188.609 76.8905 189.001 76.6394 189.43 76.4724C190.714 76.0587 192.157 76.7611 192.98 77.8338C193.803 78.9066 194.115 80.2776 194.337 81.6101C194.558 82.9426 194.697 84.3136 195.241 85.55C195.406 86.0085 195.713 86.4027 196.117 86.6756C196.838 87.0941 197.81 86.7622 198.363 86.1368C198.87 85.4677 199.201 84.682 199.325 83.8518C199.451 83.0248 199.726 82.2276 200.138 81.4995C200.898 80.3642 202.288 79.8495 203.616 79.5271C204.944 79.2048 206.344 78.9787 207.465 78.185C208.346 77.4748 209.064 76.5841 209.572 75.5729C210.284 74.3317 210.947 72.9848 210.89 71.5561C210.827 69.9974 209.904 68.6072 208.917 67.3949C206.993 65.0378 204.391 62.8874 201.346 62.8057C200.167 62.8549 198.993 62.9738 197.829 63.1616C196.157 63.2368 194.482 63.1725 192.821 62.9692C192.417 62.9209 192.008 62.9355 191.609 63.0125C191.142 63.1552 190.708 63.3908 190.334 63.7052C188.946 64.7395 187.685 65.9344 186.577 67.265C185.863 68.212 185.089 69.1118 184.259 69.959C183.714 70.5013 183.057 70.9169 182.334 71.176C181.853 71.3107 181.372 71.2145 180.915 71.3636C179.496 71.811 179.308 73.6631 178.649 74.7503Z" fill="black"/>
<path opacity="0.1" d="M224.975 87.8297C221.127 88.5369 217.937 85.4244 216.172 83.1539C215.629 82.4643 215.136 81.7377 214.695 80.9795L227.905 83.4714L228.439 83.5724C228.439 83.5724 230.868 86.7522 224.975 87.8297Z" fill="black"/>
<g opacity="0.1">
<path opacity="0.1" d="M174.989 86.5553C175.042 85.9261 174.947 85.2932 174.71 84.708C174.71 84.7561 174.666 84.8042 174.652 84.8523C174.445 85.4969 174.724 86.1656 174.902 86.8343C174.94 86.7444 174.969 86.651 174.989 86.5553Z" fill="black"/>
<path opacity="0.1" d="M176.133 78.6802C176.084 79.3454 176.097 80.0138 176.172 80.6766C176.221 80.0113 176.208 79.343 176.133 78.6802Z" fill="black"/>
<path opacity="0.1" d="M209.543 74.1824C209.036 75.1959 208.318 76.0884 207.436 76.7993C206.325 77.5931 204.925 77.8144 203.587 78.1367C202.25 78.459 200.869 78.9737 200.109 80.109C199.698 80.8391 199.423 81.6378 199.296 82.4662C199.171 83.2961 198.84 84.0816 198.334 84.7512C197.781 85.3766 196.809 85.7133 196.088 85.29C195.684 85.017 195.377 84.6228 195.212 84.1643C194.669 82.928 194.524 81.5618 194.308 80.2244C194.091 78.8871 193.769 77.5209 192.951 76.4482C192.133 75.3754 190.685 74.6683 189.401 75.0868C188.972 75.253 188.58 75.5039 188.249 75.8246C187.919 76.1452 187.656 76.5291 187.477 76.9533C187.121 77.8029 186.878 78.6957 186.755 79.6087C186.155 82.8767 185.45 86.1222 184.639 89.3453C184.616 89.4782 184.562 89.6037 184.48 89.7109C184.351 89.8376 184.179 89.9114 183.999 89.9177C182.921 90.0572 181.887 89.3068 180.805 89.3837C179.472 89.48 178.495 90.7692 177.182 90.9808C176.344 91.056 175.504 90.8694 174.777 90.4469C174.443 90.303 174.142 90.0899 173.897 89.8215C173.784 89.9827 173.71 90.1673 173.679 90.3615C173.648 90.5556 173.661 90.7542 173.719 90.9424C173.93 91.3902 174.311 91.7361 174.777 91.9045C175.504 92.327 176.344 92.5136 177.182 92.4384C178.495 92.2268 179.472 90.9376 180.805 90.8413C181.887 90.7644 182.921 91.5148 183.999 91.3753C184.179 91.369 184.351 91.2952 184.48 91.1685C184.562 91.0612 184.616 90.9358 184.639 90.8029C185.447 87.5958 186.152 84.3503 186.755 81.0663C186.878 80.1533 187.121 79.2605 187.477 78.4109C187.656 77.9867 187.919 77.6028 188.249 77.2821C188.58 76.9615 188.972 76.7106 189.401 76.5444C190.685 76.1259 192.129 76.833 192.951 77.9058C193.774 78.9785 194.086 80.3495 194.308 81.682C194.529 83.0146 194.669 84.3856 195.212 85.6219C195.377 86.0804 195.684 86.4746 196.088 86.7476C196.809 87.1661 197.781 86.8342 198.334 86.2088C198.84 85.5392 199.171 84.7537 199.296 83.9238C199.423 83.0954 199.698 82.2967 200.109 81.5666C200.869 80.4313 202.26 79.9214 203.587 79.5943C204.915 79.2671 206.315 79.0507 207.436 78.2569C208.318 77.546 209.036 76.6535 209.543 75.64C210.255 74.4037 210.919 73.0567 210.861 71.628C210.851 71.4443 210.832 71.2612 210.803 71.0796C210.571 72.1806 210.144 73.2314 209.543 74.1824Z" fill="black"/>
</g>
<path opacity="0.1" d="M210.88 74.327C212.114 76.5204 212.845 78.9603 213.021 81.4707C208.734 79.0654 204.703 76.4244 202.668 75.5056C199.123 73.9036 185.865 74.1442 180.881 74.2933C181.403 73.362 182.012 72.4825 182.7 71.6667C183.839 70.3141 185.177 69.1429 186.668 68.1935C188.644 66.9398 190.854 66.1022 193.164 65.7317C195.475 65.3613 197.836 65.4658 200.104 66.039C202.373 66.6122 204.5 67.6419 206.357 69.0653C208.214 70.4887 209.761 72.2758 210.904 74.3174L210.88 74.327Z" fill="black"/>
<path opacity="0.1" d="M226.178 85.7901C223.864 86.502 220.087 85.1262 216.172 83.1539C215.629 82.4643 215.136 81.7377 214.695 80.9795L227.905 83.4714C228.78 84.0679 229.001 84.9193 226.178 85.7901Z" fill="black"/>
<path d="M196.896 57.6488C196.896 57.6488 184.268 56.9272 180.718 63.7822L180.145 69.858L179.183 69.7521L178.991 73.8844C178.991 73.8844 198.291 73.0425 202.683 75.0245C207.075 77.0064 220.722 86.9931 226.192 85.3095C231.661 83.6258 225.711 82.0623 225.711 82.0623C225.711 82.0623 218.182 78.8729 218.182 76.3714C218.182 73.87 216.316 60.6554 196.896 57.6488Z" fill="#444053"/>
<path opacity="0.1" d="M172.54 282.879C172.54 282.879 180.598 290.696 184.085 290.094C184.085 290.094 174.224 289.253 172.54 282.879Z" fill="black"/>
<path opacity="0.1" d="M170.856 286.501C170.856 286.501 171.578 290.523 173.502 290.128C175.426 289.734 170.856 286.501 170.856 286.501Z" fill="black"/>
<path opacity="0.1" d="M183.484 353.714C183.484 353.714 172.045 362.613 173.974 362.854C175.903 363.094 183.484 353.714 183.484 353.714Z" fill="black"/>
<path d="M198.786 177.085L235.827 171.057V206.126L200.633 204.284L198.786 177.085Z" fill="#52FEBC"/>
<path d="M235.828 171.057L280.248 174.381L277.79 204.899L235.828 206.126V171.057Z" fill="#00F2A4"/>
<path d="M249.485 160.354L235.828 171.057L280.248 174.381L287.507 163.427L249.485 160.354Z" fill="#52FEBC"/>
<path d="M185.375 165.395L218.721 161.335L235.828 171.057L198.786 177.085L185.375 165.395Z" fill="#00F2A4"/>
<path d="M243.948 180.164V228.111L226.596 226.331L219.048 225.561L216.749 225.32L209.206 224.546L198.786 223.478V177.085L235.823 179.606L243.948 180.164Z" fill="#00F2A4"/>
<path d="M280.248 174.381V221.14L266.341 223.81L259.577 225.109L243.948 228.11V180.164L280.248 174.381Z" fill="#52FEBC"/>
<path d="M185.375 187.178L198.786 177.085L243.948 180.164L237.3 191.363L185.375 187.178Z" fill="#52FEBC"/>
<path d="M280.248 174.381L243.948 180.164L255.762 190.747L294.646 184.224L280.248 174.381Z" fill="#00F2A4"/>
<path d="M266.341 223.81L259.577 225.109V215.117L265.913 213.52L266.341 223.81Z" fill="#00F2A4"/>
<path d="M226.596 219.721V226.331L219.048 225.561V219.721H226.596Z" fill="#52FEBC"/>
<path d="M216.749 221.804V225.32L209.206 224.546V221.804H216.749Z" fill="#52FEBC"/>
<path opacity="0.1" d="M239.406 216.214C234.235 222.828 217.158 218.258 217.158 218.258L204.467 205.02L202.745 203.225L206.113 196.972C206.113 196.972 207.075 197.289 208.681 197.847C217.186 200.82 243.76 210.648 239.406 216.214Z" fill="black"/>
<path d="M238.925 215.252C233.754 221.866 216.677 217.296 216.677 217.296L203.986 204.058L202.264 202.263L205.632 196.01C205.632 196.01 206.594 196.327 208.2 196.885C216.705 199.858 243.279 209.686 238.925 215.252Z" fill="#EFB7B9"/>
<path opacity="0.1" d="M208.181 196.885C207.479 198.906 205.694 201.898 203.967 204.058L202.245 202.264L205.613 196.01C205.613 196.01 206.579 196.327 208.181 196.885Z" fill="black"/>
<path d="M166.166 122.072C166.166 122.072 153.538 126.882 153.418 140.352C153.389 149.032 153.871 157.706 154.861 166.329C154.861 166.329 151.253 186.413 161.475 192.186C171.698 197.958 181.199 202.769 181.199 202.769C181.199 202.769 197.53 205.415 199.536 206.256C201.542 207.098 208.513 196.274 207.431 194.471C206.348 192.667 191.479 188.217 189.713 185.21C187.948 182.204 183.599 180.178 183.599 180.178C183.599 180.178 179.164 177.153 178.986 174.627C178.808 172.101 180.116 170.297 180.487 169.215C180.857 168.133 182.199 157.55 182.199 157.55C182.199 157.55 189.377 120.003 166.166 122.072Z" fill="#F5F5F5"/>
<path d="M171.938 166.665C171.938 166.665 154.861 168.59 156.184 174.603C156.184 174.603 162.673 168.537 171.938 166.665Z" fill="#000018" fill-opacity="0.16"/>
<path d="M171.939 169.071C171.939 169.071 162.245 176.166 164.025 176.647C165.805 177.128 171.939 169.071 171.939 169.071Z" fill="#000018" fill-opacity="0.16"/>
<path d="M176.268 171.957C176.268 171.957 173.502 176.931 175.065 176.671C176.629 176.412 176.268 171.957 176.268 171.957Z" fill="#000018" fill-opacity="0.16"/>
<path d="M354.076 64.0657C354.076 64.0657 335.796 62.9641 337.931 75.789C337.931 75.789 337.503 78.0548 339.557 79.0842C339.557 79.0842 339.591 78.1221 341.433 78.454C342.09 78.5645 342.756 78.5967 343.42 78.5502C344.32 78.4902 345.175 78.1371 345.854 77.5448C345.854 77.5448 350.997 75.4234 352.998 67.0145C352.998 67.0145 354.48 65.1769 354.441 64.7055L351.353 66.0284C351.353 66.0284 352.406 68.2557 351.574 70.1077C351.574 70.1077 351.478 66.1102 350.881 66.2016C350.761 66.2016 349.28 66.9761 349.28 66.9761C349.28 66.9761 351.093 70.8534 349.722 73.6771C349.722 73.6771 350.242 68.8955 348.712 67.2551L346.537 68.5251C346.537 68.5251 348.659 72.5322 347.221 75.8034C347.221 75.8034 347.591 70.786 346.08 68.8329L344.108 70.3675C344.108 70.3675 346.105 74.3218 344.887 77.0349C344.887 77.0349 344.729 71.1949 343.68 70.7523C343.68 70.7523 341.958 72.2725 341.698 72.8978C341.698 72.8978 343.059 75.7842 342.213 77.2803C342.213 77.2803 341.693 73.3885 341.251 73.3693C341.251 73.3693 339.533 75.9477 339.355 77.6988C339.439 76.0663 339.948 74.4841 340.832 73.1095C339.842 73.2968 338.929 73.7701 338.206 74.4709C338.206 74.4709 338.47 72.6477 341.255 72.4889C341.255 72.4889 342.699 70.5311 343.055 70.4108C343.055 70.4108 340.284 70.1799 338.605 70.9255C338.605 70.9255 340.082 69.2081 343.565 69.9634L345.489 68.3759C345.489 68.3759 341.842 67.8949 340.293 68.4288C340.293 68.4288 342.073 66.9087 346.013 68.0151L348.13 66.75C348.13 66.75 345.022 66.0765 343.17 66.3218C343.17 66.3218 345.123 65.2683 348.75 66.4084L350.266 65.7301C350.266 65.7301 347.985 65.2827 347.322 65.2106C346.658 65.1384 346.619 64.9556 346.619 64.9556C348.062 64.7155 349.543 64.8821 350.896 65.4367C350.896 65.4367 354.143 64.2677 354.076 64.0657Z" fill="#008BFF"/>
<path d="M409.619 128.21C409.619 128.21 391.338 127.108 393.474 139.933C393.474 139.933 393.046 142.199 395.1 143.228C395.1 143.228 395.134 142.266 396.981 142.598C397.637 142.708 398.304 142.741 398.968 142.694C399.857 142.63 400.701 142.279 401.373 141.694C401.373 141.694 406.521 139.567 408.522 131.159C408.522 131.159 409.999 129.326 409.941 128.854L406.852 130.172C406.852 130.172 407.906 132.4 407.079 134.252C407.079 134.252 406.978 130.254 406.386 130.346C406.266 130.346 404.779 131.12 404.779 131.12C404.779 131.12 406.598 135.002 405.227 137.821C405.227 137.821 405.746 133.04 404.211 131.399L402.061 132.655C402.061 132.655 404.183 136.662 402.744 139.933C402.744 139.933 403.115 134.916 401.604 132.963L399.637 134.502C399.637 134.502 401.628 138.451 400.416 141.165C400.416 141.165 400.257 135.325 399.209 134.882C399.209 134.882 397.486 136.402 397.222 137.027C397.222 137.027 398.588 139.914 397.741 141.41C397.741 141.41 397.222 137.518 396.779 137.499C396.779 137.499 395.062 140.077 394.884 141.828C394.97 140.196 395.481 138.614 396.365 137.239C395.374 137.427 394.46 137.9 393.734 138.6C393.734 138.6 394.004 136.777 396.789 136.619C396.789 136.619 398.208 134.661 398.588 134.54C398.588 134.54 395.817 134.309 394.138 135.055C394.138 135.055 395.615 133.338 399.093 134.117L401.017 132.53C401.017 132.53 397.366 132.049 395.822 132.583C395.822 132.583 397.602 131.062 401.542 132.169L403.658 130.904C403.658 130.904 400.546 130.235 398.694 130.475C398.694 130.475 400.652 129.422 404.279 130.562L405.794 129.884C405.794 129.884 403.514 129.436 402.845 129.364C402.177 129.292 402.143 129.109 402.143 129.109C403.587 128.869 405.07 129.036 406.424 129.59C406.424 129.59 409.676 128.412 409.619 128.21Z" fill="#000018" fill-opacity="0.16"/>
<path d="M298.567 116.823C298.567 116.823 302.776 98.9807 289.768 98.9182C289.768 98.9182 287.608 98.11 286.247 99.9573C286.247 99.9573 287.175 100.155 286.545 101.915C286.327 102.538 286.182 103.183 286.112 103.839C286.019 104.734 286.22 105.634 286.685 106.403C286.685 106.403 287.902 111.839 295.825 115.245C295.825 115.245 297.383 117.016 297.855 117.035L297.085 113.768C297.085 113.768 294.709 114.427 293.025 113.287C293.025 113.287 296.984 113.869 296.989 113.287C296.989 113.167 296.508 111.575 296.508 111.575C296.508 111.575 292.375 112.7 289.826 110.868C289.826 110.868 294.449 112.195 296.33 110.969L295.464 108.602C295.464 108.602 291.134 110.011 288.171 108.034C288.171 108.034 293.054 109.256 295.238 108.102L294.059 105.898C294.059 105.898 289.826 107.188 287.358 105.528C287.358 105.528 293.131 106.365 293.756 105.412C293.756 105.412 292.553 103.455 291.981 103.089C291.981 103.089 288.921 103.945 287.575 102.853C287.575 102.853 291.495 103.002 291.587 102.589C291.587 102.589 289.34 100.458 287.627 99.9765C289.223 100.34 290.697 101.112 291.904 102.218C291.886 101.21 291.575 100.229 291.009 99.3944C291.009 99.3944 292.76 99.9717 292.452 102.762C292.452 102.762 294.136 104.494 294.189 104.888C294.189 104.888 294.887 102.199 294.439 100.414C294.439 100.414 295.882 102.165 294.521 105.461L295.753 107.649C295.753 107.649 296.869 104.138 296.585 102.521C296.585 102.521 297.783 104.532 296.017 108.227L296.907 110.531C296.907 110.531 298.095 107.577 298.172 105.72C298.172 105.72 298.879 107.827 297.133 111.209L297.547 112.816C297.547 112.816 298.374 110.646 298.557 110.002C298.74 109.357 298.927 109.352 298.927 109.352C298.92 110.816 298.505 112.248 297.73 113.489C297.73 113.489 298.36 116.847 298.567 116.823Z" fill="#000018" fill-opacity="0.16"/>
<path d="M258.534 122.903C258.534 122.903 243.852 111.921 238.603 123.817C238.603 123.817 237.001 125.477 238.151 127.464C238.151 127.464 238.7 126.689 240.075 127.974C240.563 128.427 241.102 128.821 241.682 129.147C242.468 129.585 243.375 129.754 244.265 129.629C244.265 129.629 249.73 130.682 256.022 124.76C256.022 124.76 258.269 124.039 258.481 123.615L255.166 123.033C255.166 123.033 254.82 125.472 253.112 126.564C253.112 126.564 255.224 123.168 254.675 122.923C254.565 122.87 252.91 122.682 252.91 122.682C252.91 122.682 252.294 126.925 249.6 128.527C249.6 128.527 252.665 124.818 252.285 122.605L249.769 122.47C249.769 122.47 249.341 126.988 246.339 128.931C246.339 128.931 249.403 124.943 249.225 122.48L246.733 122.682C246.733 122.682 246.228 127.074 243.722 128.671C243.722 128.671 246.796 123.707 246.166 122.764C246.166 122.764 243.89 123.086 243.327 123.461C243.327 123.461 242.89 126.607 241.35 127.406C241.35 127.406 243.058 123.87 242.712 123.625C242.712 123.625 239.859 124.832 238.738 126.208C239.708 124.891 241.004 123.85 242.5 123.187C241.569 122.8 240.546 122.693 239.556 122.879C239.556 122.879 240.778 121.504 243.193 122.903C243.193 122.903 245.454 122.052 245.838 122.158C245.838 122.158 243.65 120.44 241.836 120.142C241.836 120.142 244.02 119.517 246.498 122.066L248.994 121.811C248.994 121.811 246.218 119.406 244.626 119.002C244.626 119.002 246.95 118.709 249.629 121.797L252.092 121.908C252.092 121.908 249.865 119.637 248.186 118.819C248.186 118.819 250.394 119.012 252.799 121.961L254.44 122.225C254.44 122.225 252.78 120.599 252.261 120.176C251.741 119.752 251.813 119.574 251.813 119.574C253.151 120.167 254.299 121.12 255.128 122.326C255.128 122.326 258.471 123.101 258.534 122.903Z" fill="#000018" fill-opacity="0.16"/>
<path d="M307.413 20.8669C307.413 20.8669 292.732 9.87964 287.483 21.7809C287.483 21.7809 285.881 23.4406 287.031 25.4273C287.031 25.4273 287.579 24.6529 288.955 25.9373C289.445 26.3883 289.986 26.7806 290.567 27.1062C291.352 27.5441 292.26 27.713 293.15 27.5873C293.15 27.5873 298.615 28.6408 304.907 22.7142C304.907 22.7142 307.154 21.9974 307.36 21.5693L304.046 20.9968C304.046 20.9968 303.704 23.4358 301.992 24.5278C301.992 24.5278 304.109 21.1315 303.56 20.8862C303.449 20.8333 301.795 20.6457 301.795 20.6457C301.795 20.6457 301.16 24.8982 298.466 26.4905C298.466 26.4905 301.525 22.7815 301.15 20.5687L298.634 20.434C298.634 20.434 298.201 24.9511 295.204 26.8898C295.204 26.8898 298.269 22.9018 298.091 20.4388L295.603 20.6408C295.603 20.6408 295.094 25.0377 292.587 26.6348C292.587 26.6348 295.666 21.6703 295.036 20.7274C295.036 20.7274 292.76 21.0497 292.198 21.425C292.198 21.425 291.76 24.5711 290.22 25.3696C290.22 25.3696 291.928 21.8339 291.582 21.5837C291.582 21.5837 288.729 22.796 287.608 24.1718C288.576 22.8531 289.874 21.8114 291.37 21.1508C290.439 20.7611 289.413 20.6541 288.421 20.8429C288.421 20.8429 289.648 19.4671 292.063 20.8669C292.063 20.8669 294.324 20.0107 294.709 20.1213C294.709 20.1213 292.52 18.4039 290.706 18.1009C290.706 18.1009 292.886 17.4803 295.363 20.0251L297.86 19.7701C297.86 19.7701 295.089 17.3649 293.492 16.956C293.492 16.956 295.815 16.6673 298.499 19.7557L300.962 19.8615C300.962 19.8615 298.735 17.591 297.051 16.778C297.051 16.778 299.264 16.9704 301.67 19.9193L303.305 20.1838C303.305 20.1838 301.641 18.5771 301.121 18.1634C300.602 17.7497 300.674 17.5669 300.674 17.5669C302.012 18.1589 303.16 19.1116 303.988 20.3185C303.988 20.3185 307.332 21.0497 307.413 20.8669Z" fill="#000018" fill-opacity="0.16"/>
<path d="M363.514 34.7841C363.514 34.7841 357.645 17.4131 346.576 24.2393C346.576 24.2393 344.315 24.7204 344.137 26.9861C344.137 26.9861 345.027 26.659 345.422 28.487C345.568 29.1373 345.789 29.7685 346.081 30.368C346.478 31.1748 347.126 31.8313 347.928 32.2393C347.928 32.2393 351.834 36.208 360.378 34.8947C360.378 34.8947 362.634 35.5778 363.047 35.3421L360.642 32.9801C360.642 32.9801 358.978 34.7937 356.948 34.7215C356.948 34.7215 360.618 33.1244 360.315 32.6097C360.253 32.5087 358.997 31.4167 358.997 31.4167C358.997 31.4167 356.082 34.558 352.955 34.3511C352.955 34.3511 357.578 33.033 358.521 30.9837L356.529 29.4492C356.529 29.4492 353.614 32.9224 350.04 32.8165C350.04 32.8165 354.85 31.2724 356.067 29.1365L353.903 27.8905C353.903 27.8905 351.016 31.2242 348.024 31.1184C348.024 31.1184 353.373 28.7757 353.388 27.6404C353.388 27.6404 351.334 26.6157 350.655 26.6061C350.655 26.6061 348.51 28.9489 346.807 28.7372C346.807 28.7372 350.213 26.7889 350.069 26.3896C350.069 26.3896 347.038 25.7691 345.33 26.2694C346.875 25.7316 348.533 25.6072 350.141 25.9086C349.592 25.0614 348.808 24.3927 347.885 23.9844C347.885 23.9844 349.674 23.5466 350.872 26.0673C350.872 26.0673 353.219 26.6494 353.47 26.9525C353.47 26.9525 352.642 24.3019 351.319 23.0223C351.319 23.0223 353.47 23.7486 354.057 27.2652L356.26 28.4678C356.26 28.4678 355.351 24.9032 354.254 23.6572C354.254 23.6572 356.337 24.7348 356.789 28.7997L358.761 30.2862C358.761 30.2862 358.213 27.1497 357.289 25.5237C357.289 25.5237 359.002 26.938 359.31 30.7336L360.507 31.8785C360.507 31.8785 360.065 29.5983 359.882 28.9537C359.699 28.3091 359.848 28.2658 359.848 28.2658C360.613 29.5137 361.018 30.9489 361.017 32.4125C361.017 32.4125 363.346 34.9091 363.514 34.7841Z" fill="#000018" fill-opacity="0.16"/>
<path d="M325.212 35.6403C325.212 35.6403 306.98 33.6102 308.486 46.5458C308.486 46.5458 307.942 48.7875 309.929 49.9132C309.929 49.9132 310.011 48.9511 311.853 49.384C312.504 49.5241 313.169 49.5903 313.835 49.5812C314.735 49.565 315.605 49.2559 316.313 48.7009C316.313 48.7009 321.561 46.8392 324.01 38.541C324.01 38.541 325.578 36.7852 325.544 36.3089L322.393 37.4731C322.393 37.4731 323.355 39.7485 322.393 41.5572C322.393 41.5572 322.494 37.5597 321.912 37.6222C321.792 37.6222 320.272 38.3149 320.272 38.3149C320.272 38.3149 321.888 42.2836 320.378 45.0497C320.378 45.0497 321.138 40.2969 319.69 38.5843L317.453 39.7389C317.453 39.7389 319.377 43.8519 317.765 47.0461C317.765 47.0461 318.391 42.0527 316.981 40.0275L314.937 41.4707C314.937 41.4707 316.726 45.5163 315.375 48.1669C315.375 48.1669 315.514 42.3269 314.489 41.8314C314.489 41.8314 312.69 43.2746 312.397 43.8711C312.397 43.8711 313.614 46.8056 312.695 48.2728C312.695 48.2728 312.373 44.3618 311.949 44.3233C311.949 44.3233 310.102 46.8104 309.833 48.5662C310 46.9383 310.59 45.3826 311.545 44.0539C310.547 44.1919 309.611 44.6182 308.851 45.2806C308.851 45.2806 309.207 43.4767 311.998 43.4574C311.998 43.4574 313.513 41.5765 313.922 41.4755C313.922 41.4755 311.165 41.1051 309.448 41.7641C309.448 41.7641 311.011 40.1189 314.446 41.0762L316.471 39.5897C316.471 39.5897 312.811 38.8489 311.262 39.33C311.262 39.33 313.118 37.8868 316.996 39.2097L319.175 38.0504C319.175 38.0504 316.101 37.2229 314.239 37.3721C314.239 37.3721 316.245 36.41 319.81 37.7425L321.359 37.1412C321.359 37.1412 319.103 36.5783 318.439 36.4725C317.775 36.3667 317.751 36.1839 317.751 36.1839C319.205 36.017 320.677 36.2568 322.004 36.8766C322.004 36.8766 325.246 35.8423 325.212 35.6403Z" fill="#000018" fill-opacity="0.16"/>
<path d="M484.73 177.152C484.73 177.152 466.508 175.122 468.014 188.043C468.014 188.043 467.47 190.285 469.457 191.411C469.457 191.411 469.539 190.449 471.381 190.877C472.031 191.022 472.697 191.088 473.363 191.074C474.263 191.06 475.134 190.751 475.841 190.194C475.841 190.194 481.089 188.332 483.513 180.039C483.513 180.039 485.082 178.278 485.048 177.806L481.897 178.966C481.897 178.966 482.859 181.246 481.897 183.055C481.897 183.055 481.998 179.052 481.416 179.12C481.296 179.12 479.776 179.808 479.776 179.808C479.776 179.808 481.392 183.776 479.881 186.542C479.881 186.542 480.641 181.794 479.194 180.077L476.957 181.236C476.957 181.236 478.881 185.349 477.274 188.544C477.274 188.544 477.895 183.55 476.485 181.52L474.441 182.963C474.441 182.963 476.23 187.009 474.878 189.655C474.878 189.655 475.018 183.815 473.993 183.324C473.993 183.324 472.199 184.767 471.901 185.364C471.901 185.364 473.123 188.298 472.199 189.765C472.199 189.765 471.877 185.854 471.453 185.816C471.453 185.816 469.606 188.303 469.337 190.059C469.503 188.431 470.094 186.875 471.049 185.547C470.05 185.682 469.113 186.109 468.355 186.773C468.355 186.773 468.711 184.965 471.501 184.945C471.501 184.945 473.022 183.064 473.426 182.968C473.426 182.968 470.669 182.593 468.952 183.252C468.952 183.252 470.515 181.612 473.955 182.569L475.975 181.082C475.975 181.082 472.358 180.399 470.785 180.871C470.785 180.871 472.642 179.428 476.519 180.746L478.698 179.591C478.698 179.591 475.624 178.764 473.762 178.913C473.762 178.913 475.768 177.951 479.333 179.283L480.882 178.677C480.882 178.677 478.626 178.114 477.962 178.013C477.298 177.912 477.274 177.725 477.274 177.725C478.728 177.555 480.2 177.793 481.527 178.413C481.527 178.413 484.779 177.359 484.73 177.152Z" fill="#000018" fill-opacity="0.16"/>
<path d="M512.588 194.172C512.588 194.172 494.366 192.147 495.872 205.063C495.872 205.063 495.333 207.305 497.315 208.431C497.315 208.431 497.397 207.468 499.239 207.901C499.888 208.043 500.552 208.107 501.216 208.094C502.112 208.075 502.977 207.768 503.684 207.218C503.684 207.218 508.927 205.357 511.352 197.058C511.352 197.058 512.925 195.303 512.887 194.826L509.736 195.986C509.736 195.986 510.698 198.266 509.736 200.075C509.736 200.075 509.837 196.077 509.255 196.14C509.134 196.14 507.614 196.827 507.614 196.827C507.614 196.827 509.231 200.796 507.72 203.562C507.72 203.562 508.48 198.814 507.032 197.102L504.795 198.256C504.795 198.256 506.719 202.369 505.113 205.563C505.113 205.563 505.733 200.57 504.324 198.545L502.279 199.988C502.279 199.988 504.069 204.034 502.722 206.684C502.722 206.684 502.857 200.839 501.832 200.349C501.832 200.349 500.038 201.792 499.739 202.388C499.739 202.388 500.961 205.323 500.038 206.79C500.038 206.79 499.715 202.879 499.292 202.841C499.292 202.841 497.445 205.328 497.18 207.084C497.347 205.456 497.935 203.901 498.888 202.571C497.89 202.709 496.953 203.136 496.194 203.798C496.194 203.798 496.555 201.989 499.345 201.975C499.345 201.975 500.86 200.094 501.269 199.993C501.269 199.993 498.513 199.622 496.795 200.281C496.795 200.281 498.359 198.636 501.798 199.594L503.819 198.107C503.819 198.107 500.201 197.424 498.628 197.895C498.628 197.895 500.485 196.452 504.362 197.775L506.541 196.616C506.541 196.616 503.468 195.788 501.606 195.938C501.606 195.938 503.612 194.975 507.176 196.308L508.725 195.707C508.725 195.707 506.469 195.144 505.81 195.038C505.151 194.932 505.117 194.749 505.117 194.749C506.572 194.582 508.044 194.822 509.37 195.442C509.37 195.442 512.636 194.379 512.588 194.172Z" fill="#000018" fill-opacity="0.16"/>
<path d="M450.739 50.8126C450.739 50.8126 436.057 39.8301 430.809 51.7266C430.809 51.7266 429.207 53.3862 430.357 55.373C430.357 55.373 430.905 54.5985 432.281 55.8829C432.768 56.3362 433.308 56.7303 433.888 57.0567C434.673 57.4938 435.58 57.6627 436.471 57.5377C436.471 57.5377 441.936 58.5912 448.233 52.6694C448.233 52.6694 450.474 51.9479 450.686 51.5245L447.381 50.928C447.381 50.928 447.035 53.367 445.327 54.459C445.327 54.459 447.439 51.0627 446.891 50.8174C446.78 50.7645 445.13 50.5768 445.13 50.5768C445.13 50.5768 444.509 54.8198 441.815 56.4217C441.815 56.4217 444.88 52.7127 444.5 50.4999L441.984 50.3652C441.984 50.3652 441.556 54.8823 438.554 56.8257C438.554 56.8257 441.623 52.8378 441.44 50.3748L438.948 50.5768C438.948 50.5768 438.467 54.9689 435.937 56.566C435.937 56.566 439.016 51.6015 438.381 50.6586C438.381 50.6586 436.105 50.9809 435.543 51.3562C435.543 51.3562 435.11 54.5023 433.57 55.3008C433.57 55.3008 435.273 51.765 434.927 51.5197C434.927 51.5197 432.074 52.7272 430.953 54.103C431.923 52.7857 433.22 51.7443 434.715 51.0819C433.785 50.6952 432.761 50.5882 431.771 50.7741C431.771 50.7741 432.998 49.3983 435.413 50.7981C435.413 50.7981 437.669 49.9467 438.054 50.0525C438.054 50.0525 435.865 48.3351 434.051 48.0369C434.051 48.0369 436.235 47.4115 438.713 49.9611L441.209 49.7061C441.209 49.7061 438.438 47.3009 436.841 46.8968C436.841 46.8968 439.165 46.6033 441.844 49.6917L444.312 49.8023C444.312 49.8023 442.08 47.5318 440.401 46.714C440.401 46.714 442.614 46.9064 445.014 49.8553L446.655 50.1198C446.655 50.1198 444.995 48.4939 444.476 48.0705C443.956 47.6472 444.033 47.5077 444.033 47.5077C445.37 48.1013 446.515 49.0538 447.343 50.2593C447.343 50.2593 450.676 51.0098 450.739 50.8126Z" fill="#000018" fill-opacity="0.16"/>
<path d="M462.082 130.101C462.082 130.101 457.021 112.479 445.64 118.805C445.64 118.805 443.36 119.157 443.076 121.437C443.076 121.437 443.98 121.153 444.293 122.995C444.409 123.657 444.602 124.303 444.87 124.92C445.227 125.749 445.845 126.438 446.631 126.882C446.631 126.882 450.354 131.019 458.946 130.096C458.946 130.096 461.168 130.875 461.591 130.663L459.316 128.191C459.316 128.191 457.57 129.932 455.549 129.769C455.549 129.769 459.282 128.325 458.994 127.811C458.936 127.705 457.733 126.555 457.733 126.555C457.733 126.555 454.684 129.567 451.566 129.215C451.566 129.215 456.247 128.109 457.276 126.117L455.352 124.491C455.352 124.491 452.283 127.83 448.718 127.57C448.718 127.57 453.567 126.238 454.905 124.164L452.798 122.822C452.798 122.822 449.743 126.021 446.78 125.781C446.78 125.781 452.23 123.678 452.298 122.548C452.298 122.548 450.287 121.432 449.608 121.393C449.608 121.393 447.362 123.635 445.654 123.347C445.654 123.347 449.147 121.552 449.022 121.148C449.022 121.148 446.02 120.393 444.293 120.811C445.857 120.348 447.515 120.299 449.103 120.672C448.595 119.801 447.842 119.099 446.939 118.651C446.939 118.651 448.747 118.291 449.825 120.864C449.825 120.864 452.139 121.547 452.379 121.865C452.379 121.865 451.672 119.176 450.407 117.843C450.407 117.843 452.524 118.661 452.952 122.202L455.097 123.505C455.097 123.505 454.347 119.897 453.308 118.627C453.308 118.627 455.338 119.796 455.612 123.876L457.536 125.449C457.536 125.449 457.127 122.293 456.281 120.638C456.281 120.638 457.931 122.129 458.065 125.93L459.21 127.132C459.21 127.132 458.874 124.833 458.729 124.179C458.585 123.525 458.729 123.433 458.729 123.433C459.441 124.713 459.783 126.165 459.715 127.628C459.715 127.628 461.909 130.216 462.082 130.101Z" fill="#000018" fill-opacity="0.16"/>
<path d="M349.313 169.807C349.313 169.807 339.485 154.326 330.359 163.591C330.359 163.591 328.272 164.554 328.637 166.839C328.637 166.839 329.431 166.309 330.249 167.993C330.543 168.59 330.908 169.149 331.336 169.658C331.91 170.352 332.695 170.839 333.573 171.043C333.573 171.043 338.311 173.968 346.297 170.658C346.297 170.658 348.649 170.783 348.996 170.461L346.109 168.729C346.109 168.729 344.921 170.894 342.934 171.303C342.934 171.303 346.119 168.898 345.691 168.455C345.609 168.368 344.127 167.608 344.127 167.608C344.127 167.608 342.044 171.351 338.956 171.894C338.956 171.894 343.136 169.513 343.569 167.31L341.265 166.295C341.265 166.295 339.259 170.36 335.766 171.106C335.766 171.106 340.048 168.465 340.745 166.098L338.34 165.405C338.34 165.405 336.31 169.335 333.4 169.937C333.4 169.937 338.037 166.386 337.782 165.28C337.782 165.28 335.54 164.775 334.896 164.929C334.896 164.929 333.371 167.714 331.649 167.916C331.649 167.916 334.496 165.213 334.261 164.857C334.261 164.857 331.168 164.977 329.628 165.867C331.001 164.977 332.584 164.463 334.217 164.376C333.486 163.683 332.568 163.22 331.576 163.043C331.576 163.043 333.207 162.192 334.944 164.356C334.944 164.356 337.349 164.356 337.681 164.597C337.681 164.597 336.238 162.192 334.655 161.292C334.655 161.292 336.916 161.484 338.321 164.76L340.75 165.405C340.75 165.405 339.014 162.158 337.662 161.23C337.662 161.23 339.937 161.778 341.347 165.622L343.617 166.584C343.617 166.584 342.338 163.673 341.053 162.312C341.053 162.312 343.054 163.274 344.252 166.887L345.695 167.719C345.695 167.719 344.733 165.607 344.392 165.025C344.05 164.443 344.185 164.308 344.185 164.308C345.226 165.336 345.96 166.634 346.306 168.056C346.306 168.056 349.183 169.97 349.313 169.807Z" fill="#000018" fill-opacity="0.16"/>
<path d="M413.905 90.7115C413.905 90.7115 404.558 74.9377 395.144 83.9142C395.144 83.9142 393.027 84.8282 393.325 87.1084C393.325 87.1084 394.129 86.5985 394.898 88.3062C395.173 88.9133 395.521 89.4851 395.932 90.0092C396.485 90.7186 397.256 91.2259 398.126 91.4523C398.126 91.4523 402.768 94.5215 410.855 91.4523C410.855 91.4523 413.202 91.6496 413.558 91.3369L410.735 89.5185C410.735 89.5185 409.484 91.64 407.483 91.9911C407.483 91.9911 410.739 89.6676 410.33 89.2299C410.244 89.1385 408.791 88.3303 408.791 88.3303C408.791 88.3303 406.593 92.0104 403.499 92.4578C403.499 92.4578 407.752 90.2064 408.247 88.0224L405.977 86.9545C405.977 86.9545 403.846 90.9617 400.329 91.6015C400.329 91.6015 404.693 89.0952 405.462 86.7524L403.086 85.9827C403.086 85.9827 400.931 89.8312 398.006 90.3603C398.006 90.3603 402.749 86.9545 402.528 85.8432C402.528 85.8432 400.305 85.266 399.641 85.4007C399.641 85.4007 398.03 88.1379 396.303 88.287C396.303 88.287 399.233 85.6797 399.011 85.3141C399.011 85.3141 395.913 85.3381 394.35 86.18C395.75 85.3352 397.347 84.8709 398.982 84.833C398.271 84.1179 397.367 83.6263 396.38 83.4187C396.38 83.4187 398.04 82.6154 399.747 84.833C399.747 84.833 402.153 84.9148 402.475 85.1601C402.475 85.1601 401.113 82.7549 399.555 81.7639C399.555 81.7639 401.806 82.0237 403.11 85.3429L405.515 86.0645C405.515 86.0645 403.884 82.7645 402.557 81.7928C402.557 81.7928 404.818 82.4133 406.107 86.2954L408.344 87.3393C408.344 87.3393 407.155 84.3905 405.938 83.0098C405.938 83.0098 407.906 84.0345 408.998 87.6809L410.407 88.5564C410.407 88.5564 409.503 86.4157 409.186 85.824C408.868 85.2323 409.003 85.1024 409.003 85.1024C410.011 86.1623 410.706 87.4812 411.009 88.9124C411.009 88.9124 413.765 90.8703 413.905 90.7115Z" fill="#008BFF"/>
<path d="M354.768 123.88C354.768 123.88 355.249 105.552 342.516 108.135C342.516 108.135 340.236 107.784 339.273 109.872C339.273 109.872 340.236 109.872 339.966 111.724C339.878 112.384 339.868 113.053 339.937 113.715C340.024 114.614 340.405 115.46 341.02 116.121C341.02 116.121 343.314 121.191 351.786 122.913C351.786 122.913 353.667 124.332 354.138 124.255L352.695 121.215C352.695 121.215 350.506 122.341 348.625 121.576C348.625 121.576 352.618 121.34 352.507 120.753C352.507 120.633 351.68 119.171 351.68 119.171C351.68 119.171 347.86 121.119 344.998 119.839C344.998 119.839 349.809 120.2 351.382 118.617L350.039 116.486C350.039 116.486 346.104 118.738 342.785 117.41C342.785 117.41 347.812 117.612 349.717 116.039L348.115 114.115C348.115 114.115 344.233 116.241 341.481 115.115C341.481 115.115 347.312 114.764 347.735 113.701C347.735 113.701 346.157 112.032 345.522 111.777C345.522 111.777 342.703 113.22 341.164 112.441C341.164 112.441 345.012 111.796 345.036 111.368C345.036 111.368 342.405 109.737 340.63 109.617C342.267 109.646 343.867 110.104 345.272 110.945C345.053 109.961 344.551 109.063 343.829 108.361C343.829 108.361 345.662 108.568 345.912 111.344C345.912 111.344 347.918 112.7 348.048 113.076C348.048 113.076 348.187 110.3 347.384 108.645C347.384 108.645 349.154 110.064 348.49 113.566L350.14 115.462C350.14 115.462 350.516 111.796 349.914 110.271C349.914 110.271 351.492 111.998 350.521 115.972L351.853 118.045C351.853 118.045 352.421 114.913 352.118 113.071C352.118 113.071 353.234 114.995 352.214 118.656L352.945 120.147C352.945 120.147 353.315 117.853 353.364 117.184C353.412 116.515 353.594 116.472 353.594 116.472C353.884 117.907 353.769 119.394 353.263 120.768C353.263 120.768 354.557 123.943 354.768 123.88Z" fill="#008BFF"/>
<path d="M375.82 356.769C382.974 356.769 388.774 355.789 388.774 354.58C388.774 353.371 382.974 352.391 375.82 352.391C368.665 352.391 362.865 353.371 362.865 354.58C362.865 355.789 368.665 356.769 375.82 356.769Z" fill="#B1C7D8"/>
<path d="M328.594 390C335.749 390 341.549 389.02 341.549 387.811C341.549 386.602 335.749 385.622 328.594 385.622C321.439 385.622 315.639 386.602 315.639 387.811C315.639 389.02 321.439 390 328.594 390Z" fill="#B1C7D8"/>
<path opacity="0.1" d="M84.3816 372.975C91.5363 372.975 97.3364 371.996 97.3364 370.787C97.3364 369.578 91.5363 368.598 84.3816 368.598C77.2268 368.598 71.4268 369.578 71.4268 370.787C71.4268 371.996 77.2268 372.975 84.3816 372.975Z" fill="#0582F0"/>
<path d="M426.855 387.811C434.009 387.811 439.81 386.831 439.81 385.622C439.81 384.414 434.009 383.434 426.855 383.434C419.7 383.434 413.9 384.414 413.9 385.622C413.9 386.831 419.7 387.811 426.855 387.811Z" fill="#B1C7D8"/>
<path d="M440.343 359.122C451.026 359.122 459.686 357.658 459.686 355.851C459.686 354.044 451.026 352.58 440.343 352.58C429.66 352.58 421 354.044 421 355.851C421 357.658 429.66 359.122 440.343 359.122Z" fill="#B1C7D8"/>
<path d="M448.363 352.497C449.246 351.779 449.889 350.809 450.205 349.716C450.446 348.61 449.974 347.287 448.921 346.883C447.737 346.431 446.472 347.249 445.51 348.076C444.548 348.903 443.456 349.851 442.2 349.678C442.845 349.092 443.327 348.35 443.6 347.523C443.873 346.696 443.928 345.813 443.759 344.959C443.704 344.605 443.555 344.272 443.326 343.997C442.667 343.294 441.479 343.597 440.69 344.151C438.188 345.911 437.491 349.307 437.476 352.367C437.226 351.265 437.438 350.116 437.433 349C437.428 347.883 437.116 346.594 436.158 346.007C435.571 345.68 434.907 345.514 434.234 345.526C433.108 345.488 431.853 345.598 431.088 346.421C430.126 347.441 430.381 349.158 431.208 350.27C432.036 351.381 433.301 352.098 434.465 352.877C435.397 353.433 436.192 354.191 436.793 355.095C436.862 355.22 436.918 355.352 436.962 355.489H444.014C445.593 354.694 447.056 353.687 448.363 352.497Z" fill="#008BFF"/>
<path d="M75.6841 360.612C75.6841 360.612 83.0683 360.386 85.3052 358.799C87.5421 357.211 96.6725 355.321 97.2257 357.865C97.779 360.41 108.329 370.512 99.987 370.58C91.6455 370.647 80.6053 369.281 78.3828 367.924C76.1603 366.568 75.6841 360.612 75.6841 360.612Z" fill="#A8A8A8"/>
<path opacity="0.2" d="M100.127 369.694C91.785 369.762 80.7448 368.396 78.5223 367.039C76.829 366.01 76.1555 362.31 75.9294 360.603H75.6841C75.6841 360.603 76.1651 366.563 78.3732 367.915C80.5812 369.266 91.6359 370.637 99.9774 370.57C102.383 370.57 103.215 369.694 103.172 368.424C102.835 369.199 101.916 369.68 100.127 369.694Z" fill="black"/>
</svg>
