<svg width="323" height="150" viewBox="0 0 323 150" fill="none" xmlns="http://www.w3.org/2000/svg">
<path d="M295.341 0H26.8745C12.069 0 0 12.1089 0 27.0413V101C0 105.907 1.33348 110.497 3.61363 114.522C3.68324 114.769 3.78864 114.981 3.92885 115.192L22.5936 147.706C23.4011 149.118 24.9096 150 26.5235 150C28.1374 150 29.6111 149.118 30.4533 147.706L41.7507 128.043H295.341C310.182 128.043 322.216 115.934 322.216 101.001V27.0423C322.217 12.1089 310.182 0 295.341 0ZM312.497 100.999C312.497 110.531 304.814 118.262 295.341 118.262H26.8745C17.4019 118.262 9.71822 110.531 9.71822 100.999V27.0403C9.71822 17.5089 17.4019 9.77754 26.8745 9.77754H295.341C304.814 9.77754 312.497 17.5089 312.497 27.0403V100.999Z" fill="white"/>
<path d="M295.341 9.77853H26.8746C17.402 9.77853 9.71826 17.5089 9.71826 27.0413V101C9.71826 110.531 17.402 118.262 26.8746 118.262H295.341C304.813 118.262 312.498 110.531 312.498 101V27.0413C312.498 17.5089 304.814 9.77853 295.341 9.77853ZM73.5723 94.4335H66.8711C64.9768 94.4335 63.3977 93.8332 62.2044 92.6325C60.9763 91.3968 60.3807 89.8439 60.3807 87.9018V61.742C60.3807 58.6712 59.4678 56.447 57.6083 54.9992C55.7488 53.5874 53.6795 52.917 51.3983 52.917C49.0834 52.917 47.0478 53.5874 45.2589 54.9992C43.47 56.447 42.592 58.6712 42.592 61.742V94.4325H29.1905V64.4255C29.1905 55.7056 31.4706 49.8803 35.9971 46.9156C40.5226 43.9849 45.5045 42.361 51.0125 42.1139C56.6258 42.1139 61.7838 43.5967 66.4853 46.5624C71.2216 49.493 73.5723 55.4584 73.5723 64.4255V94.4335V94.4335ZM121.287 74.064C121.287 79.1829 120.34 83.2081 118.516 86.1018C116.655 88.9614 114.446 91.0446 111.884 92.3153C109.217 93.7271 106.375 94.6106 103.394 94.9268C100.411 95.245 97.7451 95.4221 95.4649 95.4221C90.8688 95.4221 86.8694 94.1504 83.3959 91.68C79.9573 89.1375 78.238 85.0072 78.238 79.2889C78.238 73.8518 79.7823 70.0037 82.9395 67.7094C86.0619 65.4151 90.0266 63.8622 94.8683 63.0847C95.5345 63.0847 96.2714 63.0137 97.1842 62.8026C98.0613 62.6265 99.0785 62.4494 100.236 62.3083C105.849 61.5309 108.657 59.9069 108.657 57.3305C108.657 55.3884 107.639 54.1537 105.674 53.5533C103.709 52.988 101.885 52.7059 100.236 52.7059C98.4471 52.7059 96.8332 52.953 95.4649 53.4823C94.0618 53.9776 93.0436 54.9652 92.3773 56.378H79.5715C80.0975 52.3887 81.8517 49.1048 84.9393 46.5634C88.3779 43.5977 93.2892 42.1149 99.6404 42.1149C106.797 42.1149 112.165 43.3516 115.709 45.7869C119.427 48.3284 121.287 51.9294 121.287 56.554V74.064ZM140.478 94.4335L122.725 43.2805H136.865L147.003 79.2889L155.986 47.9051C157.003 44.7984 159.038 43.2805 162.09 43.2805H172.018L154.056 94.4335H140.478V94.4335ZM217.664 70.9932C217.664 71.6286 217.629 72.0868 217.489 72.334H184.439C184.544 76.3232 185.492 79.2889 187.28 81.195C188.929 83.2081 191.421 84.2647 194.717 84.2647C196.929 84.2647 198.754 83.8065 200.261 82.889C200.647 82.7839 200.998 82.5348 201.349 82.2526C201.664 81.8994 201.98 81.5462 202.402 81.194C202.507 80.8048 202.999 80.2765 203.805 79.6401C204.647 79.0038 205.841 78.6876 207.348 78.6876H216.926C215.523 84.0526 212.821 88.183 208.892 90.9715C204.928 93.9372 199.981 95.4201 193.982 95.4201C186.719 95.4201 181.035 93.0547 176.966 88.289C172.861 83.6644 170.826 77.0617 170.826 68.4838C170.826 60.2592 172.791 53.8695 176.756 49.2439C180.826 44.5142 186.509 42.1129 193.771 42.1129C201.455 42.1129 207.348 44.4432 211.594 49.0318C215.63 53.7985 217.664 60.4002 217.664 68.872V70.9932V70.9932ZM266.396 94.4335H259.731C257.802 94.4335 256.258 93.8332 255.029 92.6325C253.836 91.3968 253.205 89.8439 253.205 87.9018V61.742C253.205 58.6712 252.292 56.447 250.433 54.9992C248.574 53.5874 246.504 52.917 244.223 52.917C241.907 52.917 239.873 53.5874 238.118 54.9992C236.328 56.447 235.416 58.6712 235.416 61.742V94.4325H222.049V64.4255C222.049 55.7056 224.331 49.8803 228.856 46.9156C233.348 43.9849 238.364 42.361 243.837 42.1139C249.451 42.1139 254.608 43.5967 259.344 46.5624C264.046 49.493 266.396 55.4584 266.396 64.4255V94.4335V94.4335ZM292.99 48.7526C292.99 50.6577 292.394 52.2476 291.096 53.4823C289.833 54.683 288.29 55.2823 286.535 55.2823H285.167V81.195C285.167 83.3832 286.466 84.4429 288.991 84.4429H292.99V94.4325C288.78 94.7147 284.255 94.6446 279.342 94.2554C274.431 93.8682 271.975 90.7254 271.975 84.8301V28.276H278.851C280.535 28.276 282.009 28.9114 283.271 30.2181C284.535 31.4878 285.166 33.0057 285.166 34.8067V43.4566H292.989V48.7526H292.99Z" fill="#572567"/>
<path d="M66.4852 46.5634C61.7837 43.5977 56.6258 42.1149 51.0124 42.1149C45.5045 42.362 40.5226 43.9859 35.9971 46.9166C31.4716 49.8813 29.1904 55.7066 29.1904 64.4265V94.4335H42.5929V61.743C42.5929 58.6723 43.4699 56.448 45.2589 55.0002C47.0488 53.5884 49.0833 52.918 51.3992 52.918C53.6794 52.918 55.7497 53.5884 57.6082 55.0002C59.4678 56.448 60.3806 58.6723 60.3806 61.743V87.9028C60.3806 89.8439 60.9763 91.3968 62.2043 92.6335C63.3976 93.8342 64.9767 94.4345 66.871 94.4345H73.5723V64.4275C73.5723 55.4594 71.2215 49.494 66.4852 46.5634Z" fill="white"/>
<path d="M115.709 45.7869C112.166 43.3516 106.797 42.1149 99.6406 42.1149C93.2904 42.1149 88.3781 43.5977 84.9405 46.5634C81.8529 49.1048 80.0988 52.3887 79.5718 56.378H92.3776C93.0448 54.9662 94.0621 53.9776 95.4652 53.4823C96.8335 52.953 98.4474 52.7059 100.236 52.7059C101.886 52.7059 103.711 52.988 105.675 53.5533C107.64 54.1537 108.657 55.3884 108.657 57.3305C108.657 59.9079 105.85 61.5319 100.236 62.3083C99.0788 62.4494 98.0615 62.6265 97.1845 62.8026C96.2726 63.0137 95.5348 63.0847 94.8685 63.0847C90.0268 63.8622 86.0632 65.4151 82.9398 67.7094C79.7826 70.0037 78.2383 73.8518 78.2383 79.2889C78.2383 85.0072 79.9576 89.1375 83.3962 91.68C86.8696 94.1503 90.8691 95.4221 95.4652 95.4221C97.7463 95.4221 100.412 95.245 103.394 94.9278C106.377 94.6106 109.219 93.7271 111.885 92.3153C114.446 91.0446 116.657 88.9614 118.516 86.1018C120.34 83.2081 121.288 79.1829 121.288 74.064V56.554C121.288 51.9294 119.427 48.3284 115.709 45.7869ZM108.833 73.4997C108.833 77.0647 107.816 79.8883 105.78 81.9714C103.746 84.0196 100.938 85.0072 97.3595 85.0072C95.2196 85.0072 93.5361 84.5129 92.3776 83.4893C91.2549 82.3597 90.6593 80.8058 90.6593 78.8657C90.6593 77.4529 91.1147 76.0411 91.9918 74.6283C93.0448 73.6047 94.6935 72.7922 96.9737 72.1229L101.395 71.1683C104.552 70.4279 107.079 69.5804 108.833 68.6979V73.4997Z" fill="white"/>
<path d="M108.832 68.6979V73.4997C108.832 77.0637 107.815 79.8883 105.779 81.9715C103.745 84.0196 100.938 85.0072 97.3589 85.0072C95.219 85.0072 93.5355 84.5129 92.377 83.4893C91.2543 82.3597 90.6587 80.8058 90.6587 78.8657C90.6587 77.4529 91.1141 76.0411 91.9912 74.6283C93.0442 73.6047 94.6929 72.7923 96.9731 72.1219L101.394 71.1683C104.551 70.4279 107.078 69.5804 108.832 68.6979Z" fill="#572567"/>
<path d="M162.09 43.2805C159.038 43.2805 157.002 44.7984 155.985 47.9051L147.003 79.2889L136.863 43.2805H122.724L140.477 94.4335H154.055L172.018 43.2805H162.09V43.2805Z" fill="white"/>
<path d="M211.594 49.0348C207.349 44.4462 201.457 42.1158 193.772 42.1158C186.51 42.1158 180.826 44.5162 176.757 49.2459C172.792 53.8715 170.826 60.2611 170.826 68.4858C170.826 77.0647 172.862 83.6664 176.968 88.291C181.037 93.0577 186.721 95.4221 193.983 95.4221C199.982 95.4221 204.928 93.9392 208.893 90.9745C212.822 88.185 215.524 84.0556 216.927 78.6886H207.349C205.841 78.6886 204.648 79.0058 203.806 79.6421C202.999 80.2775 202.508 80.8068 202.403 81.195C201.982 81.5492 201.666 81.9014 201.35 82.2556C200.999 82.5358 200.648 82.7839 200.262 82.8909C198.753 83.8085 196.928 84.2667 194.719 84.2667C191.422 84.2667 188.93 83.2091 187.281 81.196C185.492 79.2909 184.545 76.3242 184.44 72.336H217.49C217.63 72.0888 217.665 71.6306 217.665 70.9952V68.877C217.664 60.4022 215.63 53.7995 211.594 49.0348ZM184.439 63.6501C184.544 60.3322 185.492 57.7897 187.28 55.9897C189.07 54.1887 191.35 53.3062 194.158 53.3062C197.209 53.3062 199.596 54.1887 201.245 55.9897C202.753 57.6477 203.665 60.2261 203.912 63.6501H184.439Z" fill="white"/>
<path d="M203.911 63.6501H184.439C184.544 60.3322 185.493 57.7898 187.28 55.9897C189.07 54.1887 191.35 53.3062 194.157 53.3062C197.209 53.3062 199.595 54.1887 201.244 55.9897C202.752 57.6477 203.666 60.2261 203.911 63.6501Z" fill="#572567"/>
<path d="M259.344 46.5634C254.608 43.5977 249.451 42.1149 243.837 42.1149C238.363 42.362 233.347 43.9859 228.856 46.9166C224.33 49.8813 222.049 55.7066 222.049 64.4265V94.4335H235.416V61.743C235.416 58.6723 236.328 56.448 238.118 55.0002C239.872 53.5884 241.907 52.918 244.222 52.918C246.503 52.918 248.573 53.5884 250.433 55.0002C252.292 56.448 253.205 58.6723 253.205 61.743V87.9028C253.205 89.8439 253.836 91.3968 255.029 92.6335C256.256 93.8342 257.801 94.4345 259.731 94.4345H266.396V64.4275C266.396 55.4594 264.046 49.494 259.344 46.5634Z" fill="white"/>
<path d="M286.535 55.2823C288.289 55.2823 289.833 54.682 291.096 53.4823C292.395 52.2466 292.99 50.6577 292.99 48.7526V43.4566H285.167V34.8077C285.167 33.0067 284.535 31.4889 283.272 30.2181C282.009 28.9124 280.535 28.277 278.852 28.277H271.976V84.8311C271.976 90.7274 274.432 93.8682 279.343 94.2564C284.254 94.6456 288.78 94.7147 292.991 94.4335V84.4439H288.992C286.466 84.4439 285.168 83.3823 285.168 81.195V55.2833H286.535V55.2823Z" fill="white"/>
</svg>
